<svg version="1.1" id="Layer_1" x="0px" y="0px" viewBox="0 0 41 41" style="enable-background:new 0 0 38.4 33.5;" width="100px" height="100px" xmlns="http://www.w3.org/2000/svg">
  <defs></defs>
  <style type="text/css">
	.st0{fill:#8247E5;}
</style>
  <g>
    <path class="st0" d="M 30.787 13.659 C 30.056 13.241 29.116 13.241 28.281 13.659 L 22.432 17.106 L 18.463 19.299 L 12.719 22.745 C 11.988 23.164 11.049 23.164 10.213 22.745 L 5.722 20.03 C 4.991 19.612 4.468 18.777 4.468 17.836 L 4.468 12.615 C 4.468 11.779 4.887 10.944 5.722 10.422 L 10.213 7.811 C 10.944 7.393 11.884 7.393 12.719 7.811 L 17.21 10.526 C 17.941 10.944 18.463 11.779 18.463 12.719 L 18.463 16.166 L 22.432 13.868 L 22.432 10.317 C 22.432 9.481 22.014 8.647 21.179 8.124 L 12.824 3.215 C 12.093 2.797 11.152 2.797 10.317 3.215 L 1.753 8.228 C 0.917 8.647 0.5 9.481 0.5 10.317 L 0.5 20.135 C 0.5 20.97 0.917 21.806 1.753 22.328 L 10.213 27.236 C 10.944 27.654 11.884 27.654 12.719 27.236 L 18.463 23.894 L 22.432 21.596 L 28.176 18.255 C 28.907 17.836 29.848 17.836 30.683 18.255 L 35.174 20.865 C 35.905 21.284 36.427 22.118 36.427 23.059 L 36.427 28.28 C 36.427 29.116 36.009 29.951 35.174 30.474 L 30.787 33.085 C 30.056 33.503 29.116 33.503 28.281 33.085 L 23.79 30.474 C 23.059 30.056 22.537 29.221 22.537 28.28 L 22.537 24.939 L 18.568 27.236 L 18.568 30.683 C 18.568 31.518 18.985 32.353 19.821 32.876 L 28.281 37.784 C 29.012 38.203 29.951 38.203 30.787 37.784 L 39.247 32.876 C 39.978 32.458 40.5 31.623 40.5 30.683 L 40.5 20.761 C 40.5 19.926 40.083 19.09 39.247 18.568 L 30.787 13.659 Z"></path>
  </g>
</svg>